<svg width="250" height="250" viewBox="0 0 250 250" fill="none" xmlns="http://www.w3.org/2000/svg">
<path d="M223.214 0H26.7857C11.9978 0 0 11.9978 0 26.7857V223.214C0 238.002 11.9978 250 26.7857 250H223.214C238.002 250 250 238.002 250 223.214V26.7857C250 11.9978 238.002 0 223.214 0ZM154.743 214.118C150.056 214.955 148.326 212.054 148.326 209.654C148.326 206.641 148.438 191.239 148.438 178.795C148.438 170.089 145.536 164.565 142.132 161.663C162.779 159.375 184.542 156.529 184.542 120.871C184.542 110.714 180.915 105.636 175 99.1071C175.949 96.7076 179.129 86.8304 174.051 73.9955C166.295 71.596 148.549 83.9844 148.549 83.9844C141.183 81.9196 133.203 80.8594 125.335 80.8594C117.467 80.8594 109.487 81.9196 102.121 83.9844C102.121 83.9844 84.375 71.596 76.6183 73.9955C71.5402 86.7746 74.6652 96.6518 75.6696 99.1071C69.7545 105.636 66.9643 110.714 66.9643 120.871C66.9643 156.362 87.779 159.375 108.426 161.663C105.748 164.063 103.348 168.192 102.511 174.107C97.2098 176.507 83.6496 180.636 75.558 166.35C70.4799 157.533 61.3281 156.808 61.3281 156.808C52.2879 156.696 60.7143 162.5 60.7143 162.5C66.7411 165.29 70.9821 176.004 70.9821 176.004C76.3951 192.578 102.288 186.998 102.288 186.998C102.288 194.754 102.4 207.366 102.4 209.654C102.4 212.054 100.725 214.955 95.9821 214.118C59.1518 201.786 33.3705 166.741 33.3705 125.781C33.3705 74.5536 72.5446 35.6585 123.772 35.6585C175 35.6585 216.518 74.5536 216.518 125.781C216.574 166.741 191.574 201.842 154.743 214.118ZM100 180.022C98.9397 180.246 97.9353 179.799 97.8237 179.074C97.7121 178.237 98.4375 177.511 99.4978 177.288C100.558 177.176 101.562 177.623 101.674 178.348C101.842 179.074 101.116 179.799 100 180.022ZM94.6987 179.52C94.6987 180.246 93.8616 180.859 92.7455 180.859C91.5179 180.971 90.6808 180.357 90.6808 179.52C90.6808 178.795 91.5179 178.181 92.6339 178.181C93.6942 178.069 94.6987 178.683 94.6987 179.52ZM87.0536 178.906C86.8304 179.632 85.7143 179.967 84.7656 179.632C83.7054 179.408 82.9799 178.571 83.2031 177.846C83.4263 177.121 84.5424 176.786 85.4911 177.009C86.6071 177.344 87.3326 178.181 87.0536 178.906ZM80.1897 175.893C79.6875 176.507 78.6272 176.395 77.7902 175.558C76.9531 174.833 76.7299 173.772 77.2879 173.27C77.7902 172.656 78.8504 172.768 79.6875 173.605C80.4129 174.33 80.692 175.446 80.1897 175.893ZM75.1116 170.815C74.6094 171.15 73.6607 170.815 73.0469 169.978C72.433 169.141 72.433 168.192 73.0469 167.801C73.6607 167.299 74.6094 167.69 75.1116 168.527C75.7254 169.364 75.7254 170.368 75.1116 170.815ZM71.4844 165.402C70.9821 165.904 70.1451 165.625 69.5312 165.067C68.9174 164.342 68.8058 163.504 69.308 163.114C69.8103 162.612 70.6473 162.891 71.2612 163.449C71.875 164.174 71.9866 165.011 71.4844 165.402ZM67.7455 161.272C67.5223 161.775 66.7969 161.886 66.183 161.496C65.4576 161.161 65.1228 160.547 65.346 160.045C65.5692 159.71 66.183 159.542 66.9085 159.821C67.6339 160.212 67.9688 160.826 67.7455 161.272Z" fill="#1A1B1F"/>
</svg>
