<svg width="250" height="250" viewBox="0 0 250 250" fill="none" xmlns="http://www.w3.org/2000/svg">
<path d="M232.143 0H17.8013C7.97991 0 0 8.09152 0 18.0246V231.975C0 241.908 7.97991 250 17.8013 250H232.143C241.964 250 250 241.908 250 231.975V18.0246C250 8.09152 241.964 0 232.143 0ZM75.558 214.286H38.5045V94.9777H75.6138V214.286H75.558ZM57.0312 78.683C45.1451 78.683 35.5469 69.029 35.5469 57.1987C35.5469 45.3683 45.1451 35.7143 57.0312 35.7143C68.8616 35.7143 78.5156 45.3683 78.5156 57.1987C78.5156 69.0848 68.9174 78.683 57.0312 78.683ZM214.453 214.286H177.4V156.25C177.4 142.411 177.121 124.609 158.147 124.609C138.839 124.609 135.882 139.676 135.882 155.246V214.286H98.8281V94.9777H134.375V111.272H134.877C139.844 101.897 151.953 92.0201 169.978 92.0201C207.478 92.0201 214.453 116.741 214.453 148.884V214.286Z" fill="#1A1B1F"/>
</svg>
